<?xml version="1.0" standalone="no"?>
<!DOCTYPE svg PUBLIC "-//W3C//DTD SVG 20010904//EN"
 "http://www.w3.org/TR/2001/REC-SVG-20010904/DTD/svg10.dtd">
<svg version="1.0" xmlns="http://www.w3.org/2000/svg"
 width="220.000000pt" height="214.000000pt" viewBox="0 0 220.000000 214.000000"
 preserveAspectRatio="xMidYMid meet">

<g transform="translate(0.000000,214.000000) scale(0.100000,-0.100000)"
fill="#000000" stroke="none">
<path d="M640 1945 c-211 -102 -393 -193 -403 -203 -11 -9 -26 -30 -34 -46
-18 -35 -203 -837 -203 -881 0 -17 10 -51 23 -76 19 -39 439 -568 521 -658 66
-71 59 -71 561 -71 409 0 453 2 485 18 25 12 116 117 307 352 219 270 275 345
289 388 l18 53 -97 422 c-75 323 -104 431 -122 459 -29 43 -38 48 -517 277
-305 145 -320 151 -380 151 -61 0 -75 -6 -448 -185z m855 -92 c203 -97 381
-186 394 -199 20 -19 38 -81 117 -426 74 -317 92 -409 84 -430 -8 -27 -492
-635 -532 -670 -19 -17 -55 -18 -449 -18 -302 0 -436 3 -453 12 -37 16 -539
640 -549 681 -6 24 14 126 85 432 51 220 98 408 103 417 6 10 177 98 380 197
281 136 380 180 410 180 32 1 113 -34 410 -176z"/>
<path d="M888 1458 c-124 -178 -234 -341 -246 -363 -81 -160 -73 -374 19 -520
103 -165 264 -256 456 -256 109 -1 181 18 271 68 55 30 172 134 172 152 -1 7
-165 121 -175 121 -3 0 -18 -13 -31 -30 -14 -16 -55 -44 -92 -62 -58 -29 -77
-33 -142 -33 -94 1 -158 27 -223 93 -55 56 -87 125 -94 202 -10 107 5 136 257
495 126 180 230 331 230 335 0 8 -157 120 -168 120 -5 0 -110 -145 -234 -322z"/>
<path d="M1233 1202 c-55 -81 -124 -179 -152 -219 l-51 -72 88 -61 c86 -61 87
-61 104 -40 37 46 288 409 288 417 0 7 -163 123 -172 123 -1 0 -49 -67 -105
-148z"/>
</g>
</svg>
